<svg width="250" height="250" viewBox="0 0 250 250" fill="none" xmlns="http://www.w3.org/2000/svg">
<path d="M125 0C56.0707 0 0 56.0761 0 125C0 193.924 56.0707 250 125 250C193.929 250 250 193.924 250 125C250 56.0761 193.929 0 125 0ZM156.918 26.8478L125 97.8261L93.0815 26.8478C103.141 23.5652 113.859 21.7391 125 21.7391C136.141 21.7391 146.859 23.5652 156.918 26.8478V26.8478ZM71.962 36.5652L110.859 119.565H139.136L178.033 36.5652C189.588 43.525 199.678 52.6679 207.739 63.4837L159.527 168.478L139.457 130.435H110.543L90.4728 168.478L42.2554 63.4837C50.3182 52.6692 60.4078 43.5266 71.962 36.5652V36.5652ZM21.7391 125C21.7391 112.239 24.1739 100.071 28.4239 88.7772L87.7391 221.196L87.8533 221.239C49.2391 206.277 21.7391 168.832 21.7391 125ZM87.962 221.277L125 152.174L162.038 221.277C150.522 225.723 138.065 228.261 125 228.261C111.935 228.261 99.4783 225.723 87.962 221.277V221.277ZM162.141 221.239L162.255 221.196L221.576 88.7772C225.972 100.349 228.237 112.621 228.261 125C228.261 168.832 200.761 206.277 162.141 221.239V221.239Z" fill="#F6F5F5"/>
</svg>
