<svg width="601" height="200" viewBox="0 0 601 200" fill="none" xmlns="http://www.w3.org/2000/svg">
<path d="M102.172 0C45.9755 0 0.171509 44.9058 0.171509 100C0.171509 155.094 45.9755 200 102.172 200C126.377 199.999 149.785 191.517 168.172 176.082C186.559 191.516 209.967 199.997 234.172 199.997C258.377 199.997 281.785 191.516 300.172 176.082C318.559 191.516 341.967 199.997 366.172 199.997C390.377 199.997 413.785 191.516 432.172 176.082C450.559 191.517 473.967 199.999 498.172 200C554.368 200 600.172 155.094 600.172 100C600.172 44.9058 554.368 0 498.172 0C473.967 0.000783904 450.559 8.48359 432.172 23.9176C413.785 8.48461 390.377 0.00280492 366.172 0.00280492C341.967 0.00280492 318.559 8.48461 300.172 23.9176C281.785 8.48461 258.377 0.00280492 234.172 0.00280492C209.967 0.00280492 186.559 8.48461 168.172 23.9176C149.785 8.48359 126.377 0.000783904 102.172 0ZM102.172 23.5294C121.144 23.5294 138.484 30.1058 151.972 41.0589C139.12 58.1286 132.182 78.784 132.172 100C132.172 122.035 139.588 142.389 151.972 158.942C137.973 170.314 120.352 176.517 102.172 176.471C91.9217 176.494 81.7682 174.531 72.2941 170.697C62.82 166.863 54.2119 161.231 46.9642 154.125C39.7165 147.019 33.972 138.579 30.0606 129.291C26.1491 120.003 24.1478 110.049 24.1715 100C24.1715 57.6235 58.9475 23.5294 102.172 23.5294ZM234.172 23.5294C253.144 23.5294 270.483 30.1058 283.971 41.0589C271.12 58.1286 264.182 78.784 264.172 100C264.172 122.035 271.587 142.389 283.971 158.942C269.973 170.314 252.352 176.517 234.172 176.471C215.992 176.517 198.37 170.314 184.372 158.942C197.223 141.872 204.162 121.216 204.172 100C204.162 78.784 197.223 58.1286 184.372 41.0589C198.37 29.6863 215.992 23.4836 234.172 23.5294ZM366.172 23.5294C385.144 23.5294 402.483 30.1058 415.971 41.0589C403.12 58.1286 396.182 78.784 396.172 100C396.172 122.035 403.587 142.389 415.971 158.942C401.973 170.314 384.352 176.517 366.172 176.471C347.992 176.517 330.37 170.314 316.372 158.942C329.223 141.872 336.162 121.216 336.172 100C336.162 78.784 329.223 58.1286 316.372 41.0589C330.37 29.6863 347.992 23.4836 366.172 23.5294ZM498.172 23.5294C541.396 23.5294 576.172 57.6235 576.172 100C576.172 142.376 541.396 176.471 498.172 176.471C479.992 176.517 462.37 170.314 448.372 158.942C461.223 141.872 468.162 121.216 468.172 100C468.162 78.784 461.223 58.1286 448.372 41.0589C462.37 29.6863 479.992 23.4836 498.172 23.5294ZM168.172 59.2589C175.732 71.0471 180.172 84.9765 180.172 100C180.172 115.024 175.732 128.942 168.172 140.742C160.32 128.548 156.159 114.421 156.172 100C156.172 84.9765 160.612 71.0589 168.172 59.2589ZM300.172 59.2589C307.732 71.0471 312.172 84.9765 312.172 100C312.172 115.024 307.732 128.942 300.172 140.742C292.32 128.548 288.159 114.421 288.172 100C288.172 84.9765 292.612 71.0589 300.172 59.2589ZM432.172 59.2589C439.732 71.0471 444.172 84.9765 444.172 100C444.172 115.024 439.732 128.942 432.172 140.742C424.32 128.548 420.159 114.421 420.172 100C420.172 84.9765 424.612 71.0589 432.172 59.2589Z" fill="white"/>
</svg>
